<svg xmlns="http://www.w3.org/2000/svg" viewBox="0 0 64 64" role="img" aria-label="cnc">
  <defs>
    <linearGradient id="bg" x1="0%" y1="0%" x2="100%" y2="100%">
      <stop offset="0%" stop-color="#101927"/>
      <stop offset="100%" stop-color="#07101a"/>
    </linearGradient>
    <linearGradient id="shine" x1="0%" y1="0%" x2="100%" y2="0%">
      <stop offset="0%" stop-color="#93e3ff"/>
      <stop offset="100%" stop-color="#37b8ff"/>
    </linearGradient>
  </defs>
  <rect x="4" y="4" width="56" height="56" rx="16" fill="url(#bg)"/>
  <rect x="4.75" y="4.75" width="54.5" height="54.5" rx="15.25" fill="none" stroke="rgba(156,193,255,0.3)"/>
  <path d="M22 22.5c-5.4 0-9.5 4.2-9.5 9.5s4.1 9.5 9.5 9.5c2.5 0 4.7-.7 6.6-2.2l-2.5-3.1c-1 .8-2.3 1.2-3.9 1.2-3 0-5.2-2.2-5.2-5.4 0-3.2 2.2-5.4 5.2-5.4 1.5 0 2.8.4 3.9 1.2l2.5-3.1c-1.8-1.5-4-2.2-6.6-2.2Zm15.8 0c-5.4 0-9.5 4.2-9.5 9.5s4.1 9.5 9.5 9.5c2.5 0 4.7-.7 6.6-2.2l-2.5-3.1c-1 .8-2.3 1.2-3.9 1.2-3 0-5.2-2.2-5.2-5.4 0-3.2 2.2-5.4 5.2-5.4 1.5 0 2.8.4 3.9 1.2l2.5-3.1c-1.8-1.5-4-2.2-6.6-2.2Z" fill="url(#shine)"/>
  <circle cx="49.5" cy="32" r="3.2" fill="#f7fbff"/>
</svg>
